<svg viewBox="0 0 422 422" xmlns="http://www.w3.org/2000/svg"><path d="M76.74 27.82C81.28 13.79 94.08 2.38 108.97 1c6.34-.08 12.69.08 19.03-.03 16.41-.76 31.36 11.61 36.26 26.85 2.37 10.9 1.67 22.09 1.76 33.17 29.65.01 59.31.01 88.96 0 .09-11.08-.61-22.28 1.76-33.17C261.28 13.79 274.09 2.38 288.98 1c6.34-.08 12.68.08 19.02-.03 16.41-.76 31.36 11.61 36.26 26.85 2.37 10.9 1.67 22.09 1.76 33.18 9.99-.02 19.98.05 29.97-.05 8.67-.49 16.71 4.48 22.31 10.75 6.23 6.03 7.19 15.11 7.75 23.29-.2 98.33.16 196.67-.18 294.99.24 15.14-11.83 29.2-26.84 31.03-112.35-.02-224.71-.02-337.06 0-15.44-1.85-27.39-16.53-26.93-31.99-.07-98.67-.07-197.36 0-296.04-.37-15.1 10.88-29.59 25.96-31.93 11.32-.16 22.65.02 33.98-.05.09-11.09-.61-22.29 1.76-33.18m29.3 7.42c-.07 23.6-.05 47.19-.01 70.79-.27 3.15 1.8 6.42 5.08 6.82 5.96.29 11.94.15 17.9.08 3.63.06 6.32-3.4 5.96-6.9.04-23.6.06-47.19-.01-70.79-2.45-2.32-5.29-4.84-8.95-4.28-6.8.49-15.13-2.04-19.97 4.28m180 0c-.07 23.6-.05 47.19-.01 70.79-.28 3.15 1.8 6.42 5.08 6.82 5.96.29 11.94.15 17.9.08 3.63.06 6.32-3.4 5.96-6.9.04-23.59.05-47.19-.01-70.79-2.45-2.31-5.29-4.84-8.94-4.28-6.81.49-15.14-2.04-19.98 4.28M46.02 151c-.03 22.33-.03 44.66 0 66.98 22.32.02 44.65.03 66.98 0 0-22.32.01-44.65-.01-66.97-22.32-.02-44.65-.01-66.97-.01m81.99.01c-.02 22.32-.01 44.65 0 66.97 24.99.03 49.99.03 74.99 0 0-22.32.01-44.65-.01-66.97-24.99-.01-49.99-.02-74.98 0m90 0c-.02 22.32-.01 44.65 0 66.97 24.99.03 49.99.03 74.98 0 .01-22.32.02-44.65 0-66.97-24.99-.02-49.99-.01-74.98 0m90 0c-.02 22.32-.01 44.65 0 66.97 22.32.03 44.65.03 66.97 0 .02-22.32.03-44.65 0-66.98-22.32 0-44.65-.01-66.97.01m-262 83.01c-.02 24.65-.02 49.31.01 73.96 22.32.02 44.65.03 66.97 0 .01-24.65.01-49.31.01-73.96-22.33-.03-44.66-.03-66.99 0m82 0c-.02 24.65-.01 49.31 0 73.96 24.99.03 49.99.03 74.99 0v-73.96c-25-.03-50-.03-74.99 0m90 0c-.01 24.65-.01 49.31-.01 73.96 25 .03 50 .03 74.99 0 .01-24.65.01-49.31 0-73.96-24.99-.03-49.99-.03-74.98 0m90 0c-.02 24.65-.01 49.31 0 73.96 22.32.03 44.65.03 66.98 0 .02-24.65.02-49.31-.01-73.96-22.32-.03-44.65-.03-66.97 0M46.02 324.01c-.03 22.33-.03 44.66 0 66.98 22.32.01 44.65.02 66.97 0 .02-22.32.01-44.65 0-66.97-22.32-.03-44.65-.02-66.97-.01m81.99.01c-.01 22.32-.02 44.65 0 66.97 24.99.02 49.99.01 74.98 0 .02-22.32.01-44.65.01-66.97-25-.03-50-.03-74.99 0m90 0c-.01 22.32-.02 44.65 0 66.97 24.99.01 49.99.02 74.98 0 .02-22.32.01-44.65 0-66.97-24.99-.03-49.99-.03-74.98 0m89.99 0c0 22.32-.01 44.65.01 66.97 22.32.02 44.65.01 66.97.01.03-22.33.02-44.66 0-66.98-22.32-.03-44.65-.03-66.98 0z"/></svg>
