<svg viewBox="0 0 423 423" xmlns="http://www.w3.org/2000/svg"><path d="M32.94 97.97c36.71-35.64 89.76-50.66 140.07-48.98 50.72 1.15 104.17 19.77 136.9 60.11 19.61 23.76 27.03 57.1 17.79 86.55-11.45 36.9-44.08 62.94-78.55 77.57-38.93 16.47-82.51 19.16-123.86 12.34-11.22 6.91-22.18 14.47-34.56 19.22-17.36 7.08-35.51 13.64-54.42 14.25-3.42-2.97-7.43-8.09-3.71-12.41 10.66-14.2 26.07-26.18 30.51-44.11-30.56-17.48-57.52-47.22-61.09-83.49-4.03-29.99 9.59-60.22 30.92-81.05m122.05-18.06c-8.02-.33-15.85 1.5-23.78 2.41-28.54 6.19-57.68 17.05-77.91 38.98-10.32 9.72-17.84 22.56-20.58 36.53-4.06 21.81 5.28 44.39 21.06 59.39 13.4 14.46 31.53 22.94 48.22 32.87-2.41 6.06-5.79 11.82-7.19 18.23 8.6-4.02 15.96-10.31 23.94-15.4 17.96 4.37 36.6 6.51 55.03 5.77 39.38-2.11 81.16-14.41 108.45-44.47 11.21-12.2 19.42-28.33 18.77-45.22.75-17.37-7.8-34.08-19.77-46.23-24.28-26.52-60.39-38.36-95.2-42.69-10.36.29-20.75-2.73-31.04-.17z"/><path d="M356.05 133.61c34.71 17.83 64.88 52.34 65.43 92.97.03 7.24-.44 14.81-1.88 22.06-7.5 32.06-31.71 57.92-59.74 73.88 2.56 11.22 10.55 20.26 17.47 29.14 5.23 5.5 11.13 10.73 14.44 17.69.89 3.98-2.53 7.11-5.08 9.68-18.91-.6-37.06-7.17-54.42-14.25-12.39-4.77-23.38-12.3-34.58-19.26-51.68 8.89-107.78 2.03-152.17-27.47 10.85-.12 21.82 2.43 32.65.18 27.85-.76 55.72-6.92 81.48-17.59 36.31-14.65 69.09-40.37 87.67-75.31 14.73-27.91 17.89-61.53 8.73-91.72z"/></svg>
