<svg viewBox="0 0 363 363" xmlns="http://www.w3.org/2000/svg"><path d="M167.38 1.39c58.31-5.17 118.45 20.56 154.53 66.72 44.34 53.34 52.13 132.84 20.47 194.25-27.27 55.02-84.54 94.04-145.95 98.13-25.09 1.95-50.79-.75-74.57-9.31-64.3-21.76-113.12-82.86-119.5-150.55.29-8.93-2.35-17.85-.57-26.68.66-48.64 24-95.89 60.17-128.01C91.13 20.28 128.48 3.87 167.38 1.39M145.78 32c21.25 28.2 40.01 58.19 57.28 88.95 29.22-11.99 58.19-27.75 78.15-52.86 1.68-1.34.36-3.33-.94-4.35C244.19 31.91 192.08 20.16 145.78 32M31.18 149c47.83.62 95.43-6.99 141.86-18.21-17.43-30.6-36.29-60.4-57.17-88.76C73.15 62.19 41.2 102.88 31.18 149m183.64-4.49c4.91 9.59 9.03 19.57 13.41 29.38 17.49-.75 35.21-3.52 52.75-1 18.12.26 36.18 2.77 53.98 6.22-.29-34.39-12.11-69.33-34.9-95.34-21.68 28.07-53.33 46.48-85.24 60.74M28.01 176c-1.15 38.78 12.69 78.6 39.32 107.05 6.81-11.44 14.26-22.6 23.29-32.43 21.73-26.13 50.79-44.83 80.68-60.35 8.42-4.58 17.75-6.93 26.67-10.27-3.9-8.47-7.74-16.98-12.19-25.2C134.45 169 81.24 176.78 28.01 176m234.63 20.62c-8.09.97-17.03-.11-24.56 2.62 12.31 35.61 23.15 71.92 29.26 109.18 34.9-23.49 58.94-61.65 65.88-103.08-17.54-3.87-35.14-8.66-53.25-8.39-5.72-.93-11.6-1.62-17.33-.33M130 250.01c-16.08 13.63-31.35 29.14-40.66 48.32-.81 1.7-2.32 4.07-.12 5.43 42.59 33.06 102.53 39.49 151.93 18.78-6.8-39.9-18.64-78.74-32.62-116.66-28.01 10.94-55.06 25.2-78.53 44.13z"/></svg>
