<svg viewBox="0 0 262 262" xmlns="http://www.w3.org/2000/svg"><path d="M108.94 30.96C118.3 11.76 140.25 1.35 161 1.99c12 .13 24.41-.65 35.9 2.3.2 13.54.12 27.1.03 40.64-12.53.66-25.44-1.5-37.57 2.42-6.88 2.84-8.55 11-9.33 17.63-.03 10.64-.1 21.3.04 31.95 15.34.19 30.7-.03 46.05.1-1.79 10.82-2.93 21.72-4.49 32.59-1.19 4.69-.2 10.18-2.85 14.36-12.91.12-25.82-.11-38.72.09-.14 39.31-.02 78.62-.06 117.93h-48c-.04-39.31.09-78.62-.07-117.93-12.89-.2-25.79.05-38.67-.11-.29-.31-.88-.93-1.17-1.24-.21-15.23-.06-30.47-.07-45.7 13.3-.11 26.61.09 39.91-.09 1.05-22.03-3.33-45.5 7.01-65.97z"/></svg>
