<svg viewBox="0 0 422 422" xmlns="http://www.w3.org/2000/svg"><path d="M195.38 1.39c42.45-3.03 86.11 6.3 122.61 28.65 58.27 33.62 98.22 97.37 102.47 164.54 5.11 57.33-15.22 116.22-54.42 158.44C327.12 395.59 269.95 421.87 212 421c-47.37 1.02-94.79-15.6-131.59-45.4C29.5 336.11-1.32 271.53 1 206.99c.03-49.57 19.79-98.35 52.5-135.44C89.28 31.06 141.28 4.7 195.38 1.39m-11.04 40.8c-.53 1-1.06 2.01-1.6 3.01 3.12 3.85 8.44 4.14 12.33 6.91-.02.65-.05 1.96-.07 2.62-2.21 1-4.44 1.96-6.76 2.68-.17.44-.51 1.32-.69 1.77.31 2.06.46 4.14.54 6.23-3.27-.8-3.51-4.76-4.48-7.4-5.94.23-12-.69-17.82.82-2.75.91-4.84-1.72-6.94-3.03.08-2.12.34-4.24 1.04-6.25-5.15-6.46-12.56-1.08-18.38 1.48 3.67-.38 7.31-1.17 11.03-.86 1.35 2.14 3.05 4.02 4.81 5.82-4.96-.46-9.94.4-14.23 3 .7 1.81 1.34 3.64 1.95 5.48-4.41-2.41-8.03-6.49-13.22-7.25-6.65.46-11.94 4.92-17.45 8.19-20.5 14.04-38.33 32.23-51.67 53.22 3.25 1.22 5.34 3.99 5.66 7.45 1.17-.44 2.33-.89 3.51-1.33.52 1.92 1.01 3.85 1.43 5.8 5.74 3.9 12.14 7.22 16.42 12.87 1.28 2.04-1.17 3.81-2.72 4.74-1.65-1.23-3.2-2.59-5-3.6-.62 3.44.64 6.65 2.95 9.17-.44.4-1.3 1.21-1.74 1.61-1.57 11.48-4 26.25 5.64 34.74 2.71 8.93 10.44 14.39 17.79 19.24 4.41 8.23 7.98 17 13.11 24.91-.28.83-.56 1.66-.84 2.5 2.82 1.91 5.54 3.98 7.85 6.5.52 2.23.32 5.87 3.38 6.09-1.13-12.61-12.38-21.27-14.41-33.68 2.52.84 4.91 2.04 7.16 3.44-.22 11.93 14.18 16.63 16.43 27.65 3.47 2.44 6.63 5.34 9.33 8.62 3.43 5.43 1.04 13.28 6.1 17.87 7 3.53 13.67 7.68 20.54 11.47 5.44 3.25 11.54-.67 17.35.3 5.99 7.38 14.04 14.18 24.24 13.03 3.24 8.21 8.66 15.25 16.41 19.61l1.51-.52c1.74 2.55 3.43 5.49 6.27 6.93 3.92-.15 4.35-5.16 5.13-8.11-8.66 4.47-16.79-5.53-16.18-13.66.97-1.33 2.69-1.29 4.12-1.66-.83-5.88-3.1-11.85-7.86-15.66-2.76 1.48-5.98 1.36-8.8.12-.39 2.37-2.74 1.9-4.52 2.07-1.31-8.09 3.15-15.05 6-22.2l-.17-.58c-.74-.78-1.47-1.56-2.19-2.34-5.81-1.26-11.09 3.17-11.71 8.89-1.09 6.37-8.83 5.46-13.59 4.83-8.07-2.27-11.1-11.32-12.33-18.76-.16-6.79 3.3-13.78.26-20.35-.64-5.65 10.62-5.46 7.83-10.63 4.34.64 8.52-1.72 12.81-.85 2.46.69 5.83 3.43 7.9.63-.33-2.09-.8-4.16-.9-6.27.87 1.18 1.68 2.4 2.48 3.63 6.43-2.34 13.48-.33 18.63 3.91 1.22-.7 2.46-1.39 3.69-2.09 3.48 5.55 3.47 12.6 7.55 17.78 1.02 2.06 4.63 1.57 4.71-.84.38-5.62-1.77-11.11-.95-16.78-.72-.03-2.17-.09-2.89-.11a123.25 123.25 0 0 1-3.35-4.86c2.45-11.11 17.96-9.85 20.21-21.18-.24-.43-.73-1.28-.97-1.7 1.11-.51 2.21-1.02 3.32-1.53-1.38-1.23-2.85-2.34-4.44-3.27.35-.85.71-1.7 1.07-2.55-.3-.49-.88-1.48-1.17-1.97 1.43-1.96 2.84-3.94 4.31-5.87 2.34 1.74 4.91 1.55 7.16-.26-.39-1.28-.77-2.56-1.18-3.83 3.71-2.87 8.49-3.61 12.75-5.33.36-3.15.04-7.9 3.81-9.03 3.3-1.16 6.56-2.5 9.32-4.69 2.91-2.55 7.61-1.86 9.9-5.3.6-2.98-2.5-5.1-4.04-7.32-1.14-.28-2.26-.63-3.35-1.04 2.54-.34 5.25-.26 7.54-1.63.19-2.45-3.13-3.27-5.04-3.7-6.12-.06-10.95 4.52-15.17 8.45.71-9.25 11.29-11.62 18.78-12.86 5.9-1.73 12.52-2.73 17.57 1.67 3.8-5.01 9.12-7.36 14.87-9.29-.03-1.84-.05-3.67-.08-5.5-3.69-.76-5.66-3.69-6.12-7.27-.38.16-1.14.49-1.52.65-.69-.59-1.38-1.18-2.07-1.76-3.03 2.1-6.21.14-9.01-1.28-2.39-5.43-3.76-11.42-8.94-15.01-.28-2.19-1.73-3.82-3.26-5.28-1.66 1.6-3.21 3.31-4.51 5.22-3.19.05-5.5 2.63-8.34 3.35-1.74-1.72-3.8-3.02-6.27-3.34 2.15-3.08-.27-6.13-1.78-8.85-7.93-5.2-17.38-8.14-26.89-7.88-2.74 4.15 1.56 8.21.84 12.61-1.87 1.5-4 3.45-2.92 6.11 2.81 2.31 6.34 4.09 6.79 8.13-2.25 3.89-6.38 5.98-9.95 8.47-1.01 4.34 2.05 7.55 3.3 11.37-2.73 1.88-5.54 4.02-9.08 3.47-3.12-3.73-5.48-8-6.64-12.74-1.24-4.74-6.91-6.5-11.16-4.78-6.71-6.52-17.15-9.69-26.21-7.42.14-3.71-1.7-7.11-5.26-8.44-1.21-8.74 4.83-15.03 9.25-21.71 4.18.09 8.8.16 12.22-2.66 4.26-2.92 4.41-9.86 9.71-11.44 4.44.01 8.52 4.87 12.97 1.82-.06-2.28-.26-4.56-.8-6.78 1.54-2.95-.39-5.94-2.64-7.86-2.72-.69-5.11 1.27-7.54 2.18.31.43.91 1.3 1.21 1.73-2.92 2.73-5.01 7.29-9.22 8.02-3.61-1.48-4.09-6.19-6.39-9.03-1.86-.26-2.79 1.96-4.05 2.96-2.65-2.64-5.96-4.55-9.66-5.25.64-1.18 1.28-2.35 1.92-3.53-3.94-4.07-10.12-7.14-15.58-4.01m72.27 277.08c-2-.43-3.87-1.27-5.65-2.25-.29 9.25 3.31 18.36 1.75 27.61-3.03 7.67-13.47 11.57-10.71 21.24 1.08.53 2.17 1.05 3.26 1.57-1.37 5.33-5.62 9.82-4.26 15.72 36.62-6.25 71-24.52 96.18-51.89-4.22-.95-8.65-1.8-12.36-4.08-3.49-7.48-11.58-10.75-17.89-15.43-2.96.97-5.73 2.59-8.77 3.26-5.09-3.06-10.51-5.51-15.54-8.67-2.06-1.34-3.84.61-5.36 1.76-1.71-.64-2.27-2.68-3.4-3.97-7.08 2.91-15.06 7.18-17.25 15.13z"/><path d="M275.32 309.15c2.15 1.54-.15 4.75-1.31 6.39.06-2.07-.33-4.95 1.31-6.39z"/></svg>
