<svg viewBox="0 0 423 423" xmlns="http://www.w3.org/2000/svg"><path d="M32.72 61.73c22.07-21.56 54.35-28.57 84.27-27.77 31.19 1.08 58.27 19.17 81.44 38.54 4.92 3.13 7.78 8.72 13.09 11.3 18.39-16.12 37.58-32.3 60.33-42.03 16.28-6.94 34.26-9.09 51.77-7.39 17.32 1.78 35.08 5.58 50.05 14.95 30.21 16.86 47.4 51.72 47.29 85.68-.31 3.86 2.15 7.6.49 11.4-1 38.17-23.64 71.99-49.55 98.45-4.21 6.78-11.45 10.56-16.64 16.4-14.17 14.9-29.92 28.01-43.94 43.06-12.06 9.14-21.03 21.77-33.07 30.93-9.22 8.78-17.45 18.66-27.52 26.48-10.59 10.44-20.52 21.67-32.33 30.7-6.15 3.65-14.46 1.48-18.65-4.18-12.65-9.89-22.37-23.09-35.07-32.93-16.23-17.17-34.2-32.39-50.41-49.59-12.41-9.46-21.68-22.45-34.08-31.92-7.48-7.52-14.95-15.05-22.44-22.56-11.89-8.79-20.07-21.4-29.06-32.93-13.94-18.44-23.31-40.41-26.68-63.28.7-5.78-2.41-11.41-.13-17.05-.29-28.01 9.74-57.14 30.84-76.26M102 64.92c-18.95.78-38.07 7.95-51.77 21.31-16.82 19.72-21 47.66-16.94 72.59 5.01 22.83 18.67 42.66 34.31 59.55a120.42 120.42 0 0 0 19.21 18.82c9.53 9.14 18.11 19.33 28.51 27.49 9.32 9.01 17.78 18.99 28 27 9.11 8.89 17.51 18.58 27.5 26.49 13 13.99 27.5 26.29 40.86 39.88 12.88-13.93 27.67-25.83 40.49-39.87 9.99-7.92 18.4-17.61 27.51-26.5 10.4-8.16 18.98-18.36 28.51-27.49 12.05-9.15 21.02-21.77 33.08-30.92 22.4-22.22 44.85-48.05 49.45-80.46 1.63-19.86-1.22-40.63-11.53-58-11.83-18.94-34.72-28.15-56.2-29.8-29.26-5.33-56.74 11.59-77.98 30.02-7.22 6.84-14.88 13.13-21.18 20.8-5.89 7.14-18.02 7.49-24.14.48-15.57-16.86-33.1-32.61-53.68-43.32-13.64-6.19-28.92-11.41-44.01-8.07z"/></svg>
