<svg viewBox="0 0 443 443" xmlns="http://www.w3.org/2000/svg"><path d="M199.29 48.28c10.15-9.12 25.93-11.04 37.91-4.5 5.98 3.52 11.04 8.32 16.41 12.65 18.33 15.44 36.63 30.98 55.27 46.02.34-18.44-.09-36.89.2-55.32 1.18-3.12 4.25-6.42 7.88-6.16 18.02.05 36.05.05 54.08 0 4.07-.5 7.37 3.3 7.95 7 .06 37.77-.06 75.56.05 113.34 19.09 15.41 37.84 31.26 56.73 46.92 3.7 3.2 8.34 7.86 5.66 13.15-4.72 6.54-10.34 12.41-15.28 18.79-2.48 2.92-5.19 6.31-9.29 6.77-3.8-.22-7.12-2.45-9.71-5.1-61.86-51.56-123.73-103.1-185.59-154.66C159.58 138.6 97.76 190.3 35.85 241.84c-3.65 4.18-10.71 7.36-15.15 2.47-6.61-7.08-12.58-14.79-18.74-22.27-3.44-5.28 1.34-10.56 5.27-13.81 64.06-53.27 127.96-106.74 192.06-159.95z"/><path d="M221.28 110.92c52.93 42.61 104.79 86.71 157.72 129.34-.02 45.25.04 90.5-.03 135.74-1.09 7.34-7.62 13.88-14.97 14.97-36 .08-72.01 0-108.01.04.01-35 .03-70-.01-105.01h-68.96c-.04 35-.02 70.01-.01 105.01-36-.04-72 .04-108-.04-7.35-1.09-13.89-7.63-14.98-14.97-.07-45.24-.01-90.49-.03-135.74 52.73-42.7 104.82-86.28 157.28-129.34z"/></svg>
