<svg viewBox="0 0 363 363" xmlns="http://www.w3.org/2000/svg"><path d="M35.36 9.34c12.35-1.14 26.01-.91 36.36 6.92C82.05 23.5 89 36.26 88.01 49c1.46 18.94-14.52 36.54-33.04 38.91-15.75 3.35-33.95-.55-44.61-13.26C3.2 65.98-.19 54.01 1.97 43 3.36 25.67 18.56 11.83 35.36 9.34zM220.72 132.72c14.43-13.58 34.95-18.37 54.27-17.74 31.68-.72 62.93 18.09 75.82 47.29 9.25 19.61 10.39 41.53 11.2 62.73-.02 42.67-.01 85.34 0 128.01-26.01-.01-52.01-.01-78.02 0 .03-44.34-.01-88.69.02-133.03-1.12-9.14-2.98-18.46-7.37-26.64-7-14.46-25.66-19.95-40.44-16.06-19.3 3.54-32.44 22.82-33.16 41.7-.1 44.67-.02 89.35-.03 134.03-25.68-.01-51.35-.01-77.02 0 .01-77.68.02-155.35 0-233.02 25.67.01 51.35.01 77.02 0 0 11.11-.04 22.22.01 33.33 5.29-7.34 10.14-15.37 17.7-20.6zM5.99 119.99c25.67.01 51.35.01 77.02 0-.02 77.67-.01 155.34 0 233.02-25.68-.01-51.35-.01-77.02 0 .01-77.68.02-155.35 0-233.02z"/></svg>
