<svg viewBox="0 0 514 514" xmlns="http://www.w3.org/2000/svg"><path d="M346.82 139.19c-10.9-12.11-1.16-34.46 15.18-34.28 7.95-1.25 14.77 3.73 20.27 8.82 39.5 39.5 78.98 79.02 118.51 118.49 5.6 5.42 11.39 11.81 12.04 19.96 1.22 7.5-3.4 14.2-8.06 19.58-39.81 39.85-79.67 79.66-119.49 119.51-4.45 4.66-9.38 9.36-15.62 11.41-6.63 1.1-14.03.5-19.41-3.92-9.43-7.58-10.75-22.88-2.02-31.53 28.04-27.96 56.01-56 84.03-83.99 2.61-2.52 5.31-5.02 7.31-8.09-140.19-.36-280.4-.03-420.59-.16-7.63-.42-14.04-6.4-16.62-13.36-5.21-11.77 3.64-27.62 16.61-28.62 140.2-.13 280.41.2 420.6-.16-2.52-3.87-6.13-6.81-9.31-10.09-27.78-27.89-55.77-55.58-83.43-83.57z"/></svg>
