<svg viewBox="0 0 514 514" xmlns="http://www.w3.org/2000/svg"><path d="M132.24 113.24c5.43-4.85 12.04-9.6 19.76-8.3 16.63-.26 26.28 22.87 14.72 34.78-28.59 28.74-57.33 57.34-85.97 86.04-2.16 2.27-4.89 4.16-6.13 7.16 137.46.19 274.92.02 412.38.08 4.3.15 8.82-.66 12.93 1.03 10.4 4.43 16.51 17.84 11.4 28.31-2.64 6.67-8.98 12.24-16.31 12.66-140.13.05-280.26-.11-420.39.08 1.13 2.78 3.59 4.59 5.63 6.67 28.66 28.66 57.32 57.33 86 85.99 5.84 6.61 7.34 16.54 2.83 24.3-4.51 9.95-17.25 13.36-26.99 9.87-4.42-2.38-8.52-5.39-11.88-9.14-38.97-39.02-77.99-78-116.98-117C7.63 270.41 1.97 264 1.03 255.99c-.69-9.04 4.88-16.88 11.19-22.76 40.03-39.98 80.01-80 120.02-119.99z"/></svg>
