<svg viewBox="0 0 492 492" xmlns="http://www.w3.org/2000/svg"><path d="M38.4 49.32l2.57-.32h410.05c20.66 1.42 38.56 19.32 39.98 39.97v305.06c-1.42 20.65-19.32 38.55-39.97 39.97H40.98C20.32 432.59 2.42 414.68 1 394.02.98 292.68 1.04 191.33.97 89.99 1.8 69.87 18.45 51.88 38.4 49.32m5.02 35.01c-4.29.56-7.16 4.52-7.35 8.68-.1 29.14 14.99 57.32 37.75 75.17 37.14 29.51 74.42 58.85 111.61 88.3 11.2 9.19 21.87 19.15 34.2 26.88 7.77 5.59 16.76 9.83 26.37 10.7 9.87-.86 19.02-5.36 26.98-11.1 14.93-9.38 27.24-22.15 41.4-32.54 31.52-25.19 63.27-50.1 94.92-75.12 16.37-12.34 30.28-28.18 39.34-46.66 6.06-11.06 8.23-24.01 7.2-36.51-1.13-4.02-4.08-8.5-8.81-8.15-131.01.04-262.02.01-393.03.02-3.52.07-7.1-.31-10.58.33m-7.4 96.39c-.04 69.43-.03 138.87 0 208.31-.34 5.57 4.37 10.3 9.95 9.95 133.35.03 266.7.03 400.05 0 5.58.35 10.31-4.37 9.96-9.95.03-69.44.04-138.88 0-208.31-5.14 4.6-9.65 9.86-14.78 14.45-34.76 27.22-69.83 54.05-103.95 82.08-20.28 15.89-38.67 35.19-62.9 45.1-17.34 8.83-38.58 8.94-56.03.34-16.32-6.34-29.95-17.64-43.35-28.63-40.42-34.16-82.5-66.29-124.17-98.89-5.13-4.59-9.64-9.85-14.78-14.45z"/></svg>
