<svg viewBox="0 0 327 327" xmlns="http://www.w3.org/2000/svg"><path d="M90.38 26.36c7.5-.87 15.1-.1 22.65-.39 6.63-.62 13.13 5.33 12.98 12v26.06c.15 6.67-6.35 12.63-12.99 12-9.7-.17-19.69-.53-28.88 3.12-20.61 6.74-34.28 28.41-33.19 49.85-1.25 10.69 7.18 21.32 18.02 21.99 16.02.01 32.04.05 48.05-.04 17.85 1.23 33.38 17.08 34.02 35.03-.07 26.68-.07 53.36 0 80.04-.68 17.57-15.49 33.35-33.02 34.99-28.01-.01-56.03-.01-84.05-.01C15.53 299.28-.36 281.72.98 263c.05-45.33 0-90.67.03-136C-.05 98.63 13.29 70.97 33.7 51.7c15.8-13.85 35.78-22.92 56.68-25.34zM265.37 26.36c7.51-.86 15.11-.1 22.65-.39 6.64-.63 13.14 5.33 12.99 12v26.06c.25 4.99-3.54 9.25-7.8 11.28-7.64 1.88-15.7-.48-23.38 1.41-25.11 2.2-45.06 26.31-43.88 51.28-1.57 10.99 6.73 22.31 18.02 22.99 16.02.01 32.04.05 48.05-.04 17.85 1.23 33.38 17.08 34.02 35.02-.07 26.69-.07 53.37 0 80.05-.68 17.57-15.49 33.35-33.01 34.99-28.02-.01-56.04-.01-84.05 0-18.86-1.74-34.64-20.03-32.99-39.01 0-47.67.05-95.35-.02-143.02 1.73-20.75 9.9-40.8 22.95-57.02 16.47-19.8 40.91-32.67 66.45-35.6z"/></svg>
