<svg viewBox="0 0 298 298" xmlns="http://www.w3.org/2000/svg"><path d="M208.8 7.82c8.99-9.01 24.64-9.18 33.95-.58 16.02 15.99 32.04 31.98 48 48.01 8.26 8.95 8.46 23.79.46 32.97-11.01 11.46-22.59 22.37-33.55 33.88-27.21-27.06-54.3-54.27-81.45-81.39 10.22-11.22 21.67-22.07 32.59-32.89zM159.22 57.22c1.51-1.28 2.66-3.35 4.48-4.06 27.15 27.03 54.05 54.34 81.39 81.18-54.01 54.31-108.38 108.28-162.39 162.59-27.22.16-54.44.03-81.67.07-.04-27.24-.08-54.48.02-81.72C53.88 162.7 106.48 109.89 159.22 57.22m8.11 29.87c-35.34 35.73-71.11 71.05-106.51 106.71-2.62 2.18-1.37 4.95.35 7.21 1.49-.06 3.01.13 4.47-.25 35.92-35.78 71.73-71.71 107.62-107.53 1.82-1.78.1-4.32-.53-6.23l-5.4.09M26.25 226.38c-.61 6.82-.09 13.74-.23 20.6 8.32.07 16.64-.03 24.96.03.07 8.33-.03 16.65.04 24.97 6.87-.01 13.76.13 20.63-.07 5.77-6.11 11.93-11.84 17.71-17.93a4968.55 4968.55 0 0 0-45.34-45.33c-6.01 5.82-11.92 11.75-17.77 17.73z"/></svg>
