<svg viewBox="0 0 377 377" xmlns="http://www.w3.org/2000/svg"><path d="M26.36 35.31c.65-.07 1.96-.22 2.61-.3 105.01-.05 210.02.05 315.03-.05 15.8-1.03 30.6 12.41 32 28.01.02 80.01-.05 160.02.04 240.03 1.02 15.81-12.42 30.61-28.01 32-106.35-.01-212.71.02-319.06-.01-14.34-1.06-26.61-13.8-27.97-27.96V62.97C2.28 49.65 13.16 37.7 26.36 35.31m4.02 24.76c-1.4 1.47-2.84 2.91-4.31 4.31-.12 80.41-.12 160.83 0 241.24 1.47 1.4 2.91 2.84 4.32 4.31 105.4.12 210.82.12 316.22 0 1.41-1.47 2.85-2.91 4.32-4.32.12-80.4.12-160.82 0-241.22-1.47-1.41-2.91-2.85-4.32-4.32-105.41-.11-210.82-.12-316.23 0z"/><path d="M81.37 85.37c10.65-1.72 22.25.46 30.54 7.69 18.64 13.49 18.87 44.6.56 58.47-11.02 9.71-27.78 10.92-40.85 4.87-12.09-6.48-21.18-19.37-20.7-33.4-1-17.81 13.15-34.42 30.45-37.63zM244.4 115.9c27.21 27.12 54.27 54.38 81.56 81.42.09 29.22.02 58.45.03 87.67-91.66.02-183.32.01-274.98 0 0-12.55-.06-25.11.03-37.67 20.88-20.54 41.37-41.5 62.25-62.03 10.67 9.54 20.81 20.48 31.09 30.73 33.35-33.37 66.82-66.61 100.02-100.12z"/></svg>
