<svg viewBox="0 0 392 392" xmlns="http://www.w3.org/2000/svg"><path d="M111.36 26.34C143.05 6.55 181.4-1.52 218.44 1.49c32.1 2.77 63.86 15.35 87.36 37.71 22.76 21.67 38.13 51.97 38.43 83.73 2.07 7.99-1.24 15.98-.2 24.08-3.32 39.92-17.84 80.58-47.23 108.78-16.45 14.81-37.48 24.45-59.57 26.61-24.46 3.29-53.6-4.37-66.89-26.76-6.89 24.52-11.58 49.65-19.89 73.77-9.21 21.55-21.21 41.91-35.96 60.16-1.44 1.84-5.22 2.42-5.39-.68-2.04-12.72-2.45-25.65-3.58-38.46-1.85-8.14 1.32-16.25.48-24.45 5.11-49.31 20.76-96.74 31.82-144.78-6.89-15.37-7.57-32.48-6.64-49.05 1.85-10.04 6.13-19.57 12.21-27.76 8.04-12.54 24.23-19.36 38.78-15.63 13.21 3.21 22.25 16.96 21.88 30.24 1.01 33.4-21.72 62.58-19.99 96.04.82 8.02 5.65 15.1 11.34 20.54 12.21 10.63 30.3 10.19 44.59 4.4 12.43-5.83 22.09-16.41 28.61-28.33 14.04-22.71 18.74-49.7 21.05-75.88 1.74-19.8-1.58-40.43-11.74-57.73-15.28-24.6-44.57-37.67-72.89-38.19-4.96-1.26-10.02-.85-14.99.08-33.38.54-65.38 18.52-84.21 45.89C94.69 101.64 89.59 120.92 88 140c-.77 15.58 2.91 31.5 11.22 44.79 2.3 4.04 5.25 7.81 6.62 12.31 1.22 10.6-2.11 21.9-9.06 30.03-17.13-.3-30.74-14.16-38.67-28.26-20.12-40.48-18.17-91.63 7.39-129.34C76.95 51.6 93.66 37.8 111.36 26.34z"/></svg>
