<svg viewBox="0 0 363 362" xmlns="http://www.w3.org/2000/svg"><path d="M90.4 25.41c48.76-29.18 111.82-32.54 163.62-9.44 57.48 24.62 100 81.4 106.32 143.79 1.75 13.92 1.49 27.73.14 41.67-5.55 54.33-37.98 105.22-84.85 133.22-42.58 26.97-96.81 33.36-144.93 19.06 6.68-13.77 15.65-26.98 18.62-42.34 4.45-15.13 7.58-30.62 11.91-45.79 11.84 17.81 35.24 25.5 55.77 21.44 20.52-2.1 39.2-13.04 53.21-27.82 23.43-26.67 32.88-63.29 31.81-98.21-.37-20.94-9.02-40.98-21.32-57.66-4.78-4.9-9.68-9.69-14.51-14.54-21.54-17.53-49.31-27.81-77.2-26.79-20.38-.7-40.88 3.36-59.62 11.39-40.48 17.1-70.63 59.03-69.4 103.61 1.03 20.42 6.59 42.52 22.37 56.68 6.12 4.27 12.4 10.42 20.46 9.34 3.65-4.14 3.42-10.05 5.17-15.03 1.53-4.51 2.15-9.89-1.17-13.79-7.6-10.03-12.75-22.45-11.8-35.2-1.36-25.68 10.98-51.18 30.53-67.51 16.33-14.11 38.29-19.7 59.46-19.5 21.39-.18 44.12 7.01 58.08 23.96 9.82 12.01 15.98 27.39 14.93 43.05.91 22.72-2.61 46.18-13.62 66.35-8.5 19.18-28.54 35.85-50.61 31-13.37-2.98-24.09-16.43-21.78-30.38 4.09-22.08 14.06-42.81 16.76-65.23-.37-9.67-2.63-21.46-12.17-26.33-3.73-2.57-8.35-2.17-12.58-3.01-15.96.49-27.57 14.44-31.77 28.79-3.96 15.17-2.97 31.7 3.35 46.11-6.12 28.55-13.47 56.84-19.9 85.33-4.9 17.75-7.26 36.09-6.68 54.49-22.6-10.63-43.92-24.9-60.48-43.67C21.49 272.86 3.92 234.2 1.98 194c.86-6.48-2.47-12.85-.28-19.23.73-60.72 36.25-119.15 88.7-149.36z"/></svg>
