<svg viewBox="0 0 523 523" xmlns="http://www.w3.org/2000/svg"><path d="M149.37 38.37c10.17-.91 20.43-.06 30.63-.42 8.39-.76 16.43 4.66 20.11 11.99 2.97 9.05 1.6 18.7 1.89 28.06-.29 9.35 1.08 19.01-1.89 28.07-3.68 7.32-11.73 12.74-20.11 11.98-9.68.24-19.45-.84-29.04.75C112.35 123.23 79.6 159.72 82 199c-.62 10.44-.2 22.27 8.23 29.77 5.63 6.44 14.51 8.81 22.76 9.25 24.35-.03 48.69-.01 73.04-.03 23.18.96 43.87 17.57 52.15 38.84 2.54 7.14 2.99 14.69 3.83 22.14C242 334.98 242 370.99 242 407c.25 10.82-.52 21.8-3.81 32.17-8.26 21.3-29.05 37.78-52.17 38.84-42.67 0-85.35-.05-128.02.02-28.86-.74-55.24-25.93-56.27-54.97-1.2-5.95-.64-12.03-.73-18.06-.03-68 .05-136-.04-204-.39-5.72 1.54-11.28 1.04-17.01C6.72 123.74 48.94 68.01 106.11 48.04c13.75-5.67 28.53-8.27 43.26-9.67zM429.38 38.37c10.16-.91 20.42-.06 30.62-.42 8.39-.76 16.43 4.66 20.11 11.99 2.96 9.05 1.6 18.7 1.89 28.05-.29 9.36 1.08 19.02-1.89 28.08-3.68 7.32-11.73 12.74-20.11 11.98-9.68.24-19.45-.84-29.04.75-38.61 4.43-71.37 40.92-68.96 80.2-.62 10.44-.2 22.27 8.23 29.78 5.64 6.44 14.51 8.8 22.76 9.24 24.34-.04 48.69-.01 73.03-.02 23.18.95 43.88 17.56 52.16 38.83 2.54 7.14 2.99 14.69 3.83 22.15-.02 36-.01 72.01-.01 108.02.25 10.82-.52 21.8-3.81 32.17-8.25 21.3-29.05 37.79-52.17 38.84-42.68 0-85.35-.05-128.02.02-28.86-.74-55.24-25.93-56.27-54.97-1.2-5.95-.64-12.03-.73-18.06-.02-67 .04-134-.03-201-.5-6.39 1.6-12.61 1.02-19.01 2.33-31.7 15.12-62.32 34.83-87.16 27.05-34.35 68.99-56.22 112.56-59.46z"/></svg>
