<svg viewBox="0 0 223 222" xmlns="http://www.w3.org/2000/svg"><g><path d="M2.11 6.21c4.98-7.36 14.37-5.4 21.86-4.4 53.49 5.08 103.92 31.81 140.08 71.17 33.62 36.7 54.72 84.97 57.34 134.79 1.67 6.22-3.5 14.11-10.37 13.28-7.35-.1-14.71-.01-22.06-.03-5.8.18-10.3-5.5-10.09-11.03-2.53-34.26-14.5-68.06-35.48-95.4-28.72-39.43-75.12-65.08-123.45-70.31-6.43-.36-13.68-.79-17.83-6.48a95.16 95.16 0 0 1 0-31.59z"/><path d="M2.11 86.2c2.69-2.63 5.66-6.02 9.87-5.28 32.06 2.38 63.38 16.22 86.29 38.81 25.45 23.64 41.19 57.3 43.42 91.9-.9 4.62-4.46 9.66-9.65 9.4-7.36-.02-14.72-.03-22.08 0-3.83.39-6.34-2.95-8.87-5.24-1.17-7.07-1.98-14.21-3.81-21.15-9.23-33.49-37.16-61.59-71.09-69.83-6.47-2.09-13.48-1.68-19.84-4.14-4.09-2.68-5.61-7.99-5.4-12.66.24-7.28-.65-14.67 1.16-21.81zM6.29 174.33c7.23-11.29 22.53-16.55 35.13-11.84 12 3.9 20.08 16.06 20.27 28.51-.46 7.68-2.84 15.65-8.89 20.8-10.19 12.34-31.64 12.61-42.1.5-10.5-9.25-12.78-26.62-4.41-37.97z"/></g></svg>
