<svg viewBox="0 0 263 262" xmlns="http://www.w3.org/2000/svg"><path d="M67.98 9.96c29.58-13 65.25-12.27 93.69 3.37 31.22 14.59 52.79 46.01 58.4 79.66 4.48 27.17-1.19 56.26-17.08 79.13.62 5.18 6.94 6.4 9.09 10.84 12.56 11.7 24.53 24.11 36.38 36.5 7 5.16 12.68 12.62 13.36 21.54-.64 8.01-5.43 15.83-13.17 18.68-7.22 3.2-16.23.93-21.43-4.89-17.09-17.26-34.36-34.34-51.46-51.57-.78-.86-2.21-1.87-3.29-.88-31.64 22.18-75.61 25-109.82 7.02-35.37-16.57-59.57-54.03-61.1-92.93C-1.33 71.98 26.28 26.65 67.98 9.96m36.44 31.48C70.05 44.16 40.12 76.16 42 111c-1.87 39.5 36.95 75.1 76.15 69.27 32.72-1.85 60.65-30.86 62.86-63.26-.18-6.96.65-14.04-1.31-20.82-6.24-33.93-41.15-58.94-75.28-54.75z"/></svg>
