<svg viewBox="0 0 393 393" xmlns="http://www.w3.org/2000/svg"><path d="M187.11 14.13c3.62-7.3 15.16-7.3 18.78 0 19.25 36.51 36.39 74.06 55.24 110.77 39.06 5.06 78.03 11.25 117.06 16.73 6.01.57 12.82 3.91 13.77 10.51-.78 6.44-5.68 11.36-10.17 15.64-6.84 6.5-12.91 13.86-20.53 19.48-11.53 11.47-22.95 23.05-34.46 34.54-9.47 7.22-17.02 16.57-25.78 24.6-.09 2.6.11 5.2.69 7.74 6.56 36.93 12.61 73.95 19.23 110.87.45 5.3-.75 11.33-5.13 14.81-1.63.29-3.24.63-4.84 1.05-6.49-1.31-12.52-4.16-18.04-7.76-31.04-15.83-61.59-32.56-92.61-48.43-1.75-.79-3.75-2.43-5.63-.99-31.75 16.09-62.9 33.28-94.62 49.42-5.52 3.6-11.54 6.45-18.02 7.76-1.61-.42-3.23-.76-4.86-1.04-8.14-6.38-4.79-17.28-3.14-25.83 5.12-30.15 10.51-60.26 15.48-90.44 1.03-5.68 2.61-11.36 2.44-17.17-7.99-7.47-15.11-15.88-23.8-22.56-20.64-21.76-43.32-41.32-63.83-63.18-1.84-3.48-4.64-7.69-2.34-11.6 2.52-5.09 8.33-6.89 13.57-7.55 38.79-5.35 77.48-11.66 116.3-16.6 18.85-36.71 35.99-74.26 55.24-110.77z"/></svg>
