<svg viewBox="0 0 262 262" xmlns="http://www.w3.org/2000/svg"><path d="M105.78 4.95c.29-1.41.27-4 2.31-3.9 12.63-.14 25.27-.01 37.9-.04.03 21.99-.01 43.98.02 65.97 17.33.03 34.66.01 52 .01-.01 13.34-.01 26.68 0 40.02-17.34 0-34.67-.02-52.01.01-.01 27.33.01 54.66-.01 81.99.52 7.39 3.35 15.01 8.99 19.98 11.35 6.87 25.08 3.73 36.78.03 4.44 12.32 10.19 24.72 12.36 37.71-2.79 2.41-5.68 4.8-9.09 6.29-25.52 11.42-56.63 11.18-81.02-3.04-21.23-12.75-33.35-37.57-33.05-61.98.08-27 .03-53.99.02-80.99-8.66-.02-17.32-.01-25.99 0-.02-11.33.07-22.65-.04-33.98 10.91-4.23 21.06-10.41 29.33-18.75 12.07-13.7 19.22-31.31 21.5-49.33z"/></svg>
