<svg viewBox="0 0 247 247" xmlns="http://www.w3.org/2000/svg"><path d="M120.56 66.77c2.07-25.17 26.31-46.02 51.44-44.85 13.35-.1 26.61 5.95 35.38 16.02 11.53-2.46 22.5-6.77 32.81-12.45-4.39 11.1-11.25 21.52-21.8 27.59 9.75-.49 19.02-3.89 28.01-7.43-6.45 10.57-16.13 18.7-25.36 26.77 1.51 3.42.87 7.13.21 10.66-.83 40.09-20.22 78.66-49.97 105.2-46.07 40.8-120.15 45.21-171 10.66 26.54 4.06 54.14-4.5 75.25-20.76-21.49.52-41.47-14.98-47.89-35.23 7.5 2.01 15.33.99 22.86-.26-14.04-3.47-27.04-12.36-33.84-25.34-4.71-7.42-5.38-16.33-6.83-24.76 7.34 2.32 14.53 5.93 22.43 5.48C10.78 83.68 4.45 52.73 17.48 30.65 38.9 57.83 70.93 76.28 105 82c5.31 1.18 10.83.66 16.1 2.09-.1-5.79-2.05-11.56-.54-17.32z"/></svg>
