<svg viewBox="0 0 362 362" xmlns="http://www.w3.org/2000/svg"><path d="M171.36 1.35c26.69-3.01 55 5.94 73.39 25.9 35.87 32.27 35.84 95.2.01 127.5-32.17 35.26-94.35 35.28-126.51 0-20.4-18.23-29.45-47.09-26.21-73.77 3.1-40.73 38.9-75.86 79.32-79.63z"/><path d="M52.04 199.02c10.88-20.18 33.32-34.43 56.58-32.99 14.94 14.75 34.34 25.21 55.22 28.25 32.3 6.04 67.42-4.81 90.5-28.26 19.64-1.26 38.63 8.79 50.69 23.94 20.88 29.42 25.95 66.83 26.17 101.99 1.85 17.73-2.54 37.02-14.38 50.87-7.1 10.03-18.58 16.83-30.79 18.18-70-.04-140.02.08-210.02-.06-24.26-3.42-40.6-27.15-43.78-50.11.07-6.34-2.37-12.62-.43-18.88.1-31.77 4.46-64.78 20.24-92.93z"/></svg>
